<svg id="Layer_1" xmlns="http://www.w3.org/2000/svg" viewBox="0 0 350 200"><style>.st0{fill:#0060a9}.st1{fill:#0033a0}.st2{fill:#d13239}</style><path class="st0" d="M179.9 16.5c0 3.5-2.8 6.3-6.3 6.3s-6.3-2.8-6.3-6.3 2.8-6.3 6.3-6.3 6.3 2.8 6.3 6.3z"/><path class="st1" d="M172.8 1c-1.2.1-2.4.3-3.6.6-3.6 1-6.7 3.2-8.8 6.3-.8 1.1-1.4 2.3-1.9 3.5-.7 1.7-.9 4-1.1 5.7-.1.8-.2 1.6-.5 2.4-.5 1.7-1.3 2.8-2.9 3.6-4.3 2.1-2.3 2.8-2.3 2.8 15.5.8 15.5-1.2 15.5-1.2 0-1.6-.7-.1-2.5-3.4s0-8.3 0-8.3c3.3-8.6 12.4-4.1 12.4-4.1 14.7 7.3 7.3 26.4 3.3 34.5-2.4 4.8-5.4 7.9-7.5 9.7-2.5-2.4-8.4-7.2-21-15.2-19.4-12.2-20.6-15.1-21.7-20 0 0-.8-3.2-2.4-1.7-1.7 1.5-6.2 20.3-6.2 20.3s-1.3 2.2 3.1 4.3c4.4 2.1 40.1 23.2 42.2 31.7 0 0 .3.9 2.6-2.2 1.6-2.2 4.4-6.2 5.9-8.5 30.8-41.1 10-61.6-2.6-60.8z"/><path class="st1" d="M154.6 88.8s7.9-6.4 8.9-8.8c1-2.4 2.4-8.1-5.2-13.5-7.2-5.1-34.7-22.8-34.7-22.8l-3.5-2.6s-2.9-1.4-2.9-6.3c0-4.8-1.8-3.5-1.8-3.5s-1.6-.7-4 12.4l-2.1 7.6s-2.7 3.7 4.6 6.8c7.4 3.1 31.8 20.1 31.8 20.1s7.7 4.6 8.9 10.6z"/><path class="st2" d="M230.1 33.5l-2 3.1s-6.9-4.3-15 8.3c-8 12.4-37.5 53.5-37.5 53.5s-7.3 12.7-18.3 5.3c0 0-9.4-7.1-9.4-10.2 0 0 1.3-.7 3 .3s4.6 1.8 8.3-3c3.6-4.8 34.4-49.2 34.4-49.2l5-6.8s6.4-10.2 19.6-6.9c-.2 0 8.3 3.1 11.9 5.6z"/><path class="st1" d="M52.4 103.7L23 153.1H8.7l-6.6-49.5h13.1l3.9 35.3 19.7-35.3h13.6zm13.7 12.1l-8.7 37.3h-12l8.6-37.3h12.1zm3.7-14.4l-2.1 9.1H55l2.1-9.1h12.7zm17.9 52.7c-6.4 0-11.3-1.4-14.7-4.2-3.5-2.8-5.2-6.7-5.2-11.7 0-3.4.6-6.5 1.7-9.3 1.1-2.8 2.8-5.3 4.9-7.5 2-2.1 4.6-3.7 7.6-5 3.1-1.2 6.4-1.8 10.1-1.8 5.6 0 9.8 1.1 12.6 3.4 2.8 2.3 4.2 5.6 4.2 10 0 1.5-.2 3-.4 4.4-.3 1.4-.7 2.9-1.2 4.3H79.5v.8c0 2.6.9 4.6 2.7 6.1 1.8 1.5 4.6 2.2 8.4 2.2 2.6 0 5.1-.4 7.4-1.3 2.3-.9 4.4-1.9 6.1-3h1.3l-2.2 9.6c-2.3 1-4.8 1.8-7.3 2.3-2.6.5-5.3.7-8.2.7zm9.1-24.4c.1-.4.1-.8.1-1.1 0-.3.1-.7.1-1 0-1.8-.5-3.1-1.6-4-1.1-.9-2.7-1.4-4.7-1.4-2.5 0-4.5.7-6.2 2-1.7 1.3-3 3.2-3.8 5.6h16.1zm27.3 24.1c-4.1 0-7.1-.7-8.9-2-1.8-1.4-2.7-3.4-2.7-6.1 0-.7.1-1.4.2-2.1.1-.7.3-1.4.4-2.3l4.1-17.7h-4.9l1.8-7.9h4.9l2.5-10.7h12l-2.4 10.7h11.2l-1.8 7.9h-11.2l-3.1 13.5c-.2.9-.4 1.9-.6 2.8-.2.9-.3 1.7-.3 2.4 0 1.3.4 2.3 1.1 2.8.7.5 1.9.8 3.4.8.6 0 1.4-.1 2.4-.3 1-.2 1.8-.5 2.4-.8h1l-1.9 8c-1.4.3-2.8.6-4.3.8-1.5.2-3.2.2-5.3.2zm29 .3c-3.2 0-6.3-.3-9.3-.9-3-.6-5.3-1.3-6.9-2.1l2.3-9.8h1.1c.5.4 1.1.9 1.8 1.4.7.5 1.8 1 3.2 1.6 1.2.5 2.5.9 4.1 1.3 1.6.4 3.2.5 5 .5 2.7 0 4.7-.3 6-.9 1.3-.6 2-1.5 2-2.7 0-.9-.5-1.6-1.4-2-1-.5-2.9-1-5.9-1.7-5.1-1.2-8.6-2.6-10.4-4.3-1.9-1.7-2.8-3.7-2.8-6.2 0-4.2 1.9-7.5 5.6-9.9 3.8-2.4 8.9-3.6 15.3-3.6 2.8 0 5.6.3 8.4.8 2.8.6 4.8 1.2 6.1 1.8l-2.2 9.4h-1c-1.6-1.2-3.5-2.2-5.7-3-2.2-.8-4.5-1.1-6.9-1.1-2.5 0-4.5.3-5.9.9-1.4.6-2 1.5-2 2.8 0 1 .6 1.7 1.8 2.2 1.2.5 3 1.1 5.6 1.6 4.7 1 8.1 2.3 10.2 3.9 2.1 1.5 3.1 3.7 3.1 6.5 0 4.2-1.9 7.4-5.7 9.8-3.9 2.5-9 3.7-15.5 3.7zm68-26.4c0 3.4-.6 6.8-1.7 10s-2.6 6-4.6 8.3c-2 2.5-4.3 4.4-6.8 5.7-2.5 1.4-5.4 2.1-8.5 2.1-2 0-3.8-.2-5.5-.7-1.7-.5-3.2-1.1-4.5-1.9l-3.6 15.5h-12l11.8-51h12l-.9 3.9c2.3-1.5 4.3-2.8 6.3-3.6 1.9-.9 4-1.3 6.4-1.3 3.8 0 6.7 1.1 8.7 3.4 1.8 2.4 2.9 5.6 2.9 9.6zm-15.6 13.1c1-1.4 1.7-3 2.2-4.9.5-1.9.8-3.9.8-6.1 0-2-.4-3.6-1.3-4.6-.9-1.1-2.5-1.6-4.7-1.6-1.2 0-2.3.2-3.5.6-1.1.4-2.3.9-3.6 1.6l-4.3 18.8c.7.3 1.5.5 2.5.7.9.2 1.9.2 2.9.2 2 0 3.8-.4 5.3-1.3 1.5-.8 2.7-2 3.7-3.4zm40.6 8.4c-.8.5-1.7 1.1-2.7 1.8-1.1.7-2 1.2-3 1.6-1.2.5-2.4.9-3.5 1.2-1.1.3-2.6.4-4.5.4-3.1 0-5.6-.9-7.6-2.6-2-1.7-2.9-4-2.9-6.8 0-2.9.7-5.4 2.1-7.5 1.4-2.1 3.5-3.7 6.2-4.9 2.6-1.2 5.6-2 9.2-2.5 3.5-.5 7.4-.9 11.5-1.1 0-.1.1-.3.1-.6.1-.3.1-.6.1-1 0-1.6-.7-2.7-2.2-3.3-1.5-.6-3.6-.9-6.5-.9-2 0-4.1.3-6.5 1-2.4.7-4.2 1.2-5.4 1.7h-1.1l1.8-8.8c1.4-.4 3.6-.8 6.5-1.2 2.9-.4 5.8-.7 8.7-.7 5.8 0 10.1.8 12.9 2.3 2.7 1.5 4.1 3.9 4.1 7.1 0 .4 0 1-.1 1.7s-.2 1.3-.3 1.9l-5.8 25.4h-11.9l.8-4.2zm3.2-13.7c-2.1.2-4.1.4-6 .6-1.9.2-3.5.6-4.8 1.1-1.4.5-2.4 1.2-3.1 2.1-.7.9-1.1 2.1-1.1 3.5 0 1.3.5 2.2 1.4 2.7.9.5 2.3.8 4.1.8 1.2 0 2.4-.3 3.8-.8 1.3-.5 2.6-1.2 3.8-2.1l1.9-7.9zm35.9 18.6c-2.5 0-4.9-.3-7.2-.9-2.2-.6-4.2-1.6-5.8-2.9-1.6-1.3-2.9-2.9-3.8-4.9-.9-2-1.4-4.3-1.4-6.8 0-3.3.6-6.5 1.9-9.3 1.3-2.9 3.1-5.4 5.4-7.5 2.3-2.1 5-3.8 8.3-5 3.3-1.2 6.8-1.8 10.6-1.8 2.3 0 4.5.3 6.8.8 2.2.5 4.3 1.3 6.3 2.2l-2.5 10.2H302c-1.3-1.6-2.8-2.7-4.4-3.5-1.6-.8-3.5-1.1-5.6-1.1-3.8 0-6.8 1.3-9.1 4s-3.4 6-3.4 10c0 2.8.7 4.8 2.1 6.2 1.4 1.4 3.6 2.1 6.6 2.1 2.3 0 4.4-.5 6.3-1.4 1.9-.9 3.5-2 4.9-3.1h1.7l-2.5 10.2c-2.4 1-4.5 1.8-6.3 2.2-1.9.1-4.2.3-7.1.3zm39.7 0c-6.4 0-11.3-1.4-14.7-4.2-3.5-2.8-5.2-6.7-5.2-11.7 0-3.4.6-6.5 1.7-9.3 1.1-2.8 2.8-5.3 4.9-7.5 2-2.1 4.6-3.7 7.6-5 3.1-1.2 6.4-1.8 10.1-1.8 5.6 0 9.8 1.1 12.6 3.4 2.8 2.3 4.2 5.6 4.2 10 0 1.5-.2 3-.4 4.4-.3 1.4-.7 2.9-1.2 4.3h-27.8v.8c0 2.6.9 4.6 2.7 6.1 1.8 1.5 4.6 2.2 8.4 2.2 2.6 0 5.1-.4 7.4-1.3 2.3-.9 4.4-1.9 6.1-3h1.3l-2.2 9.6c-2.3 1-4.8 1.8-7.3 2.3-2.5.5-5.2.7-8.2.7zm9.2-24.4c.1-.4.1-.8.1-1.1 0-.3.1-.7.1-1 0-1.8-.5-3.1-1.6-4-1.1-.9-2.7-1.4-4.7-1.4-2.5 0-4.5.7-6.2 2-1.7 1.3-3 3.2-3.8 5.6h16.1z"/><path d="M20.4 178.6h-6.3v16.3H8.9v-16.3H2.6v-3.9h17.8v3.9zm12.5 5.7h-.4c-.2-.1-.5-.1-1-.2-.5 0-.8-.1-1.1-.1-.7 0-1.3 0-1.8.1s-1.1.2-1.7.5v10.2H22v-15.2h4.9v2.2c1.1-.9 2-1.5 2.8-1.8.8-.3 1.5-.5 2.2-.5h1.2v4.8zm10.6 9c-.3.2-.6.4-1 .7-.4.3-.8.5-1.1.7-.5.2-1 .4-1.5.5-.5.1-1.1.2-1.7.2-1.4 0-2.7-.4-3.6-1.3-1-.9-1.5-2-1.5-3.4 0-1.1.2-2 .7-2.7.5-.7 1.2-1.3 2.1-1.7.9-.4 2-.7 3.4-.9 1.3-.2 2.7-.3 4.2-.4v-.1c0-.8-.3-1.4-1-1.7-.7-.3-1.7-.5-3-.5-.8 0-1.7.1-2.6.4-.9.3-1.6.5-2 .7h-.4V180c.5-.1 1.4-.3 2.5-.5 1.2-.2 2.3-.3 3.5-.3 2.8 0 4.8.4 6 1.3 1.2.9 1.8 2.2 1.8 4v10.4h-4.8v-1.6zm0-2.4v-3.2c-.7.1-1.4.1-2.1.2-.8.1-1.4.2-1.7.3-.5.2-.9.4-1.1.7-.3.3-.4.7-.4 1.2 0 .3 0 .6.1.8.1.2.2.4.4.6.2.2.5.3.7.4.3.1.7.1 1.4.1.5 0 1-.1 1.5-.3.4-.2.9-.5 1.2-.8zm23.3-11.2l-5.9 15.2h-5.5l-5.8-15.2h5.1l3.5 10.5 3.5-10.5h5.1zm16.3 8.5H71.9c.1 1.2.5 2.1 1.4 2.7.8.6 2.1.9 3.7.9 1 0 2-.2 3-.6 1-.4 1.7-.8 2.3-1.2h.5v3.9c-1.1.4-2.1.8-3.1 1-1 .2-2.1.3-3.2.3-3.1 0-5.4-.7-7-2.1-1.6-1.4-2.4-3.3-2.4-5.9 0-2.5.8-4.5 2.3-6 1.5-1.5 3.7-2.2 6.3-2.2 2.5 0 4.3.6 5.6 1.9 1.2 1.3 1.9 3.1 1.9 5.4v1.9zm-4.9-2.9c0-1-.3-1.8-.8-2.3-.5-.5-1.2-.8-2.2-.8-.9 0-1.7.2-2.3.7-.6.5-.9 1.3-1 2.3h6.3zm11.8 9.6h-4.9v-21.1H90v21.1zm27.8-6.4c0 2-.8 3.6-2.5 4.8-1.7 1.2-4 1.9-6.9 1.9-1.7 0-3.1-.1-4.4-.4-1.2-.3-2.4-.7-3.5-1.1v-4.8h.6c1.1.9 2.3 1.5 3.6 2 1.3.5 2.6.7 3.8.7.3 0 .7 0 1.2-.1s.9-.1 1.3-.3c.4-.2.7-.4 1-.6.3-.2.4-.6.4-1.1 0-.4-.2-.8-.6-1.1-.4-.3-.9-.6-1.6-.7-.8-.2-1.6-.4-2.4-.5l-2.4-.6c-1.7-.6-2.9-1.3-3.7-2.2-.7-.9-1.1-2.1-1.1-3.5 0-1.9.8-3.4 2.5-4.6 1.7-1.2 3.8-1.8 6.5-1.8 1.3 0 2.6.1 3.9.4 1.3.3 2.4.6 3.4 1v4.6h-.6c-.8-.6-1.8-1.2-3-1.6-1.2-.4-2.4-.7-3.6-.7-.4 0-.9 0-1.3.1l-1.2.3c-.4.1-.7.3-.9.6-.3.3-.4.6-.4.9 0 .5.2.9.6 1.2.4.3 1.2.5 2.3.8.7.2 1.5.3 2.1.4.7.1 1.4.3 2.2.6 1.5.5 2.7 1.2 3.4 2.1.9.8 1.3 2 1.3 3.3zm16.8-.3h-11.2c.1 1.2.5 2.1 1.4 2.7.8.6 2.1.9 3.7.9 1 0 2-.2 3-.6 1-.4 1.7-.8 2.3-1.2h.5v3.9c-1.1.4-2.1.8-3.1 1-1 .2-2.1.3-3.2.3-3.1 0-5.4-.7-7-2.1-1.6-1.4-2.4-3.3-2.4-5.9 0-2.5.8-4.5 2.3-6 1.5-1.5 3.7-2.2 6.3-2.2 2.5 0 4.3.6 5.6 1.9 1.2 1.3 1.9 3.1 1.9 5.4v1.9zm-4.8-2.9c0-1-.3-1.8-.8-2.3-.5-.5-1.2-.8-2.2-.8-.9 0-1.7.2-2.3.7-.6.5-.9 1.3-1 2.3h6.3zm17.9-1h-.4c-.2-.1-.5-.1-1-.2-.5 0-.8-.1-1.1-.1-.7 0-1.3 0-1.8.1s-1.1.2-1.7.5v10.2h-4.9v-15.2h4.9v2.2c1.1-.9 2-1.5 2.8-1.8.8-.3 1.5-.5 2.2-.5h1.2v4.8z"/><path d="M164.4 179.7l-5.9 15.2H153l-5.8-15.2h5.1l3.5 10.5 3.5-10.5h5.1zm6.4-2.2h-5.2v-3.7h5.2v3.7zm-.2 17.4h-4.9v-15.2h4.9v15.2zm11.2.4c-1.3 0-2.5-.2-3.6-.5s-2.1-.8-2.9-1.5c-.8-.7-1.4-1.5-1.9-2.5-.4-1-.7-2.2-.7-3.5 0-1.4.2-2.6.7-3.7.5-1 1.1-1.9 2-2.6.8-.6 1.8-1.1 2.8-1.4 1.1-.3 2.2-.4 3.3-.4 1 0 2 .1 2.9.3.9.2 1.7.5 2.5.9v4.2h-.7c-.2-.2-.4-.4-.7-.6-.3-.2-.6-.4-1-.6-.4-.2-.8-.4-1.2-.5-.4-.1-1-.2-1.5-.2-1.3 0-2.3.4-3 1.2-.7.8-1 1.9-1 3.4s.4 2.6 1.1 3.3c.7.8 1.7 1.1 3.1 1.1.6 0 1.2-.1 1.7-.2s.9-.3 1.2-.5c.3-.2.6-.4.8-.6.2-.2.5-.4.6-.6h.7v4.2c-.8.4-1.6.6-2.4.9-.9.3-1.8.4-2.8.4zm22-7.1h-11.2c.1 1.2.5 2.1 1.4 2.7.8.6 2.1.9 3.7.9 1 0 2-.2 3-.6 1-.4 1.7-.8 2.3-1.2h.5v3.9c-1.1.4-2.1.8-3.1 1-1 .2-2.1.3-3.2.3-3.1 0-5.4-.7-7-2.1-1.6-1.4-2.4-3.3-2.4-5.9 0-2.5.8-4.5 2.3-6 1.5-1.5 3.7-2.2 6.3-2.2 2.5 0 4.3.6 5.6 1.9 1.2 1.3 1.9 3.1 1.9 5.4v1.9zm-4.9-2.9c0-1-.3-1.8-.8-2.3-.5-.5-1.2-.8-2.2-.8-.9 0-1.7.2-2.3.7-.6.5-.9 1.3-1 2.3h6.3zm24.4 10c-1.5 0-2.9-.2-4.2-.7-1.3-.4-2.4-1.1-3.3-2-.9-.9-1.6-2-2.1-3.3-.5-1.3-.8-2.8-.8-4.5 0-1.6.2-3 .7-4.3.5-1.3 1.2-2.4 2.1-3.3.9-.9 2-1.6 3.3-2.1 1.3-.5 2.7-.7 4.2-.7.8 0 1.6 0 2.3.1.7.1 1.3.2 1.9.4.6.2 1.2.4 1.6.6.5.2.9.4 1.3.6v4.9h-.6c-.3-.2-.6-.5-1-.8-.4-.3-.8-.6-1.3-.9-.5-.3-1-.5-1.6-.7-.6-.2-1.2-.3-1.9-.3s-1.4.1-2.1.3c-.7.2-1.3.6-1.8 1.1-.5.5-1 1.2-1.3 2-.3.8-.5 1.9-.5 3.1 0 1.3.2 2.3.5 3.2.4.8.8 1.5 1.3 2 .6.5 1.2.8 1.8 1.1.7.2 1.3.3 2 .3.6 0 1.3-.1 1.9-.3.6-.2 1.2-.4 1.7-.8.4-.3.9-.5 1.2-.8.4-.3.7-.6.9-.8h.5v4.8c-.5.2-1 .4-1.4.6-.5.2-.9.4-1.4.5-.7.2-1.3.3-1.9.4-.2.2-1 .3-2 .3zm24.9-8c0 2.5-.7 4.5-2.2 5.9-1.5 1.4-3.5 2.2-6.1 2.2-2.6 0-4.7-.7-6.1-2.2-1.5-1.4-2.2-3.4-2.2-5.9 0-2.5.7-4.5 2.2-5.9 1.5-1.4 3.5-2.2 6.1-2.2 2.7 0 4.7.7 6.2 2.2 1.3 1.4 2.1 3.4 2.1 5.9zm-6 3.7c.3-.4.6-.9.7-1.4.2-.5.2-1.3.2-2.3 0-.9-.1-1.6-.2-2.2-.2-.6-.4-1.1-.7-1.4-.3-.4-.6-.6-1-.8-.4-.2-.8-.2-1.3-.2s-.9.1-1.3.2-.7.4-1 .8c-.3.4-.5.8-.7 1.4-.2.6-.3 1.4-.3 2.3 0 .8.1 1.6.2 2.2.2.6.4 1.1.7 1.5.3.4.6.6 1 .8.4.2.9.2 1.4.2.4 0 .9-.1 1.3-.2.3-.3.7-.6 1-.9zm22.9-6.9v10.8h-4.9v-7.6c0-.7 0-1.4-.1-1.9 0-.5-.1-.9-.3-1.3s-.4-.6-.7-.7c-.3-.1-.8-.2-1.4-.2-.5 0-.9.1-1.4.3-.5.2-.9.4-1.2.6v10.8h-4.9v-15.2h4.9v1.7c.8-.7 1.6-1.2 2.4-1.5s1.6-.6 2.5-.6c1 0 1.9.2 2.7.7.8.4 1.4 1.1 1.8 2 1-.8 1.9-1.5 2.8-1.9.9-.5 1.8-.7 2.7-.7 1.6 0 2.9.5 3.7 1.5.9 1 1.3 2.4 1.3 4.3v9.9h-4.9v-9.5c0-.5-.1-.9-.3-1.3-.2-.3-.4-.6-.7-.7-.3-.1-.8-.2-1.4-.2-.4 0-.8.1-1.2.2-.3-.1-.8.2-1.4.5zm29 3c0 1.3-.2 2.4-.6 3.4-.4 1-.9 1.9-1.5 2.5-.6.7-1.4 1.2-2.2 1.6-.8.4-1.7.5-2.6.5-.9 0-1.6-.1-2.2-.3-.6-.2-1.2-.4-1.9-.8v6.3h-4.9v-20.8h4.9v1.6c.7-.6 1.5-1.1 2.3-1.4s1.7-.6 2.7-.6c1.9 0 3.4.7 4.4 2.1 1.1 1.5 1.6 3.4 1.6 5.9zm-5 .1c0-1.5-.3-2.6-.8-3.2-.5-.7-1.3-1-2.4-1-.5 0-.9.1-1.4.2-.5.1-1 .3-1.4.6v7.6c.3.1.7.2 1 .2.4 0 .7.1 1.1.1 1.3 0 2.2-.4 2.9-1.1.7-.8 1-1.9 1-3.4zm16.4 6.1c-.3.2-.6.4-1 .7-.4.3-.8.5-1.1.7-.5.2-1 .4-1.5.5-.5.1-1.1.2-1.7.2-1.4 0-2.7-.4-3.6-1.3-1-.9-1.5-2-1.5-3.4 0-1.1.2-2 .7-2.7.5-.7 1.2-1.3 2.1-1.7.9-.4 2-.7 3.4-.9 1.3-.2 2.7-.3 4.2-.4v-.1c0-.8-.3-1.4-1-1.7-.7-.3-1.7-.5-3-.5-.8 0-1.7.1-2.6.4-.9.3-1.6.5-2 .7h-.4V180c.5-.1 1.4-.3 2.5-.5 1.2-.2 2.3-.3 3.5-.3 2.8 0 4.8.4 6 1.3 1.2.9 1.8 2.2 1.8 4v10.4h-4.8v-1.6zm0-2.4v-3.2c-.7.1-1.4.1-2.1.2-.8.1-1.4.2-1.7.3-.5.2-.9.4-1.1.7-.3.3-.4.7-.4 1.2 0 .3 0 .6.1.8.1.2.2.4.4.6.2.2.5.3.7.4.3.1.7.1 1.4.1.5 0 1-.1 1.5-.3.3-.2.8-.5 1.2-.8zm23.2 4h-4.9v-7.5c0-.6 0-1.2-.1-1.8-.1-.6-.2-1.1-.3-1.3-.2-.3-.4-.6-.8-.7-.3-.2-.8-.2-1.5-.2-.4 0-.9.1-1.3.2-.5.1-1 .4-1.5.7v10.8h-4.9v-15.2h4.9v1.7c.9-.7 1.7-1.2 2.5-1.6.8-.4 1.7-.5 2.7-.5 1.6 0 2.9.5 3.8 1.4.9 1 1.4 2.4 1.4 4.3v9.7zm9.9-5.4l3.5-9.8h5l-8.5 20.8h-5.3l2.4-5.7-5.9-15.1h5.1l3.7 9.8z"/></svg>